# 3ds Max Wavefront OBJ Exporter v0.97b - (c)2007 guruware
# File Created: 08.05.2014 17:57:31

mtllib Puzzle.mtl

#
# object Plane001
#

v  -75.1884 0.5542 0.0000
v  -60.1884 0.5542 0.0000
v  -60.1884 0.5542 -10.0000
v  -75.1884 0.5542 -10.0000
v  -45.9140 0.5542 -0.5458
v  -45.9140 0.5542 -11.5133
v  -29.4628 0.5542 -0.5458
v  -15.1884 0.5542 0.0000
v  -15.1884 0.5542 -10.0000
v  -29.4628 0.5542 -11.5133
v  -0.1884 0.5542 0.0000
v  -0.1884 0.5542 -10.0000
v  -60.1884 0.5542 -20.0000
v  -75.1884 0.5542 -20.0000
v  -45.1884 0.5542 -20.0000
v  -30.1884 0.5542 -20.0000
v  -15.1884 0.5542 -20.0000
v  -0.1884 0.5542 -20.0000
v  -60.1884 0.5542 -30.0000
v  -75.1884 0.5542 -30.0000
v  -45.1884 0.5542 -30.0000
v  -30.1884 0.5542 -30.0000
v  -15.1884 0.5542 -30.0000
v  -0.1884 0.5542 -30.0000
v  -60.1884 0.5542 -40.0000
v  -75.1884 0.5542 -40.0000
v  -45.1884 0.5542 -40.0000
v  -30.1884 0.5542 -40.0000
v  -15.1884 0.5542 -40.0000
v  -0.1884 0.5542 -40.0000
v  -60.1884 0.5542 -50.0000
v  -75.1884 0.5542 -50.0000
v  -45.1884 0.5542 -50.0000
v  -30.1884 0.5542 -50.0000
v  -15.1884 0.5542 -50.0000
v  -0.1884 0.5542 -50.0000
v  14.3127 0.5542 -20.0000
v  14.3127 0.5542 -30.0000
# 38 vertices

vn 0.0000 1.0000 -0.0000
# 1 vertex normals

vt 0.0000 0.0000 0.0000
vt 0.2000 0.0000 0.0000
vt 0.2000 0.2000 0.0000
vt 0.0000 0.2000 0.0000
vt 0.4000 0.0000 0.0000
vt 0.4000 0.2000 0.0000
vt 0.6000 0.0000 0.0000
vt 0.8000 0.0000 0.0000
vt 0.8000 0.2000 0.0000
vt 0.6000 0.2000 0.0000
vt 1.0000 0.0000 0.0000
vt 1.0000 0.2000 0.0000
vt 0.2000 0.4000 0.0000
vt 0.0000 0.4000 0.0000
vt 0.4000 0.4000 0.0000
vt 0.6000 0.4000 0.0000
vt 0.8000 0.4000 0.0000
vt 1.0000 0.4000 0.0000
vt 0.2000 0.6000 0.0000
vt 0.0000 0.6000 0.0000
vt 0.4000 0.6000 0.0000
vt 0.6000 0.6000 0.0000
vt 0.8000 0.6000 0.0000
vt 1.0000 0.6000 0.0000
vt 0.2000 0.8000 0.0000
vt 0.0000 0.8000 0.0000
vt 0.4000 0.8000 0.0000
vt 0.6000 0.8000 0.0000
vt 0.8000 0.8000 0.0000
vt 1.0000 0.8000 0.0000
vt 0.2000 1.0000 0.0000
vt 0.0000 1.0000 0.0000
vt 0.4000 1.0000 0.0000
vt 0.6000 1.0000 0.0000
vt 0.8000 1.0000 0.0000
vt 1.0000 1.0000 0.0000
# 36 texture coords

g Plane001
usemtl wire_227153153
s 1
f 1/1/1 2/2/1 3/3/1 4/4/1 
f 2/2/1 5/5/1 6/6/1 3/3/1 
f 7/7/1 8/8/1 9/9/1 10/10/1 
f 8/8/1 11/11/1 12/12/1 9/9/1 
f 4/4/1 3/3/1 13/13/1 14/14/1 
f 3/3/1 6/6/1 15/15/1 13/13/1 
f 6/6/1 10/10/1 16/16/1 15/15/1 
f 10/10/1 9/9/1 17/17/1 16/16/1 
f 9/9/1 12/12/1 18/18/1 17/17/1 
f 14/14/1 13/13/1 19/19/1 20/20/1 
f 13/13/1 15/15/1 21/21/1 19/19/1 
f 15/15/1 16/16/1 22/22/1 21/21/1 
f 16/16/1 17/17/1 23/23/1 22/22/1 
f 17/17/1 18/18/1 24/24/1 23/23/1 
f 20/20/1 19/19/1 25/25/1 26/26/1 
f 19/19/1 21/21/1 27/27/1 25/25/1 
f 21/21/1 22/22/1 28/28/1 27/27/1 
f 22/22/1 23/23/1 29/29/1 28/28/1 
f 23/23/1 24/24/1 30/30/1 29/29/1 
f 26/26/1 25/25/1 31/31/1 32/32/1 
f 25/25/1 27/27/1 33/33/1 31/31/1 
f 27/27/1 28/28/1 34/34/1 33/33/1 
f 28/28/1 29/29/1 35/35/1 34/34/1 
f 29/29/1 30/30/1 36/36/1 35/35/1 
s off
f 24/24/1 18/18/1 37/18/1 38/24/1 
# 25 polygons

#
# object Plane002
#

v  0.6801 0.5542 0.1803
v  15.6801 0.5542 0.1803
v  15.6801 0.5542 -9.8197
v  0.6801 0.5542 -9.8197
v  30.6801 0.5542 0.1803
v  30.6801 0.5542 -9.8197
v  45.6801 0.5542 0.1803
v  45.6801 0.5542 -9.8197
v  60.6801 0.5542 0.1803
v  60.6801 0.5542 -9.8197
v  75.6801 0.5542 0.1803
v  75.6801 0.5542 -9.8197
v  16.8351 0.5542 -18.9758
v  0.6801 0.5542 -18.9758
v  30.6801 0.5542 -19.8197
v  45.6801 0.5542 -19.8197
v  60.6801 0.5542 -19.8197
v  75.6801 0.5542 -19.8197
v  30.6801 0.5542 -29.8197
v  16.8351 0.5542 -30.8062
v  45.6801 0.5542 -29.8197
v  60.6801 0.5542 -29.8197
v  75.6801 0.5542 -29.8197
v  0.6801 0.5542 -30.8062
v  15.6801 0.5542 -39.8197
v  0.6801 0.5542 -39.8197
v  30.6801 0.5542 -39.8197
v  45.6801 0.5542 -39.8197
v  60.6801 0.5542 -39.8197
v  75.6801 0.5542 -39.8197
v  15.6801 0.5542 -49.8197
v  0.6801 0.5542 -49.8197
v  30.6801 0.5542 -49.8197
v  45.6801 0.5542 -49.8197
v  60.6801 0.5542 -49.8197
v  75.6801 0.5542 -49.8197
v  30.6801 0.5542 10.1420
v  45.6801 0.5542 10.1420
# 38 vertices

vn 0.0000 1.0000 -0.0000
# 1 vertex normals

vt 0.0000 0.0000 0.0000
vt 0.2000 0.0000 0.0000
vt 0.2000 0.2000 0.0000
vt 0.0000 0.2000 0.0000
vt 0.4000 0.0000 0.0000
vt 0.4000 0.2000 0.0000
vt 0.6000 0.0000 0.0000
vt 0.6000 0.2000 0.0000
vt 0.8000 0.0000 0.0000
vt 0.8000 0.2000 0.0000
vt 1.0000 0.0000 0.0000
vt 1.0000 0.2000 0.0000
vt 0.2000 0.4000 0.0000
vt 0.0000 0.4000 0.0000
vt 0.4000 0.4000 0.0000
vt 0.6000 0.4000 0.0000
vt 0.8000 0.4000 0.0000
vt 1.0000 0.4000 0.0000
vt 0.4000 0.6000 0.0000
vt 0.2000 0.6000 0.0000
vt 0.6000 0.6000 0.0000
vt 0.8000 0.6000 0.0000
vt 1.0000 0.6000 0.0000
vt 0.0000 0.6000 0.0000
vt 0.2000 0.8000 0.0000
vt 0.0000 0.8000 0.0000
vt 0.4000 0.8000 0.0000
vt 0.6000 0.8000 0.0000
vt 0.8000 0.8000 0.0000
vt 1.0000 0.8000 0.0000
vt 0.2000 1.0000 0.0000
vt 0.0000 1.0000 0.0000
vt 0.4000 1.0000 0.0000
vt 0.6000 1.0000 0.0000
vt 0.8000 1.0000 0.0000
vt 1.0000 1.0000 0.0000
# 36 texture coords

g Plane002
usemtl wire_227153153
s 1
f 39/37/2 40/38/2 41/39/2 42/40/2 
f 40/38/2 43/41/2 44/42/2 41/39/2 
f 43/41/2 45/43/2 46/44/2 44/42/2 
f 45/43/2 47/45/2 48/46/2 46/44/2 
f 47/45/2 49/47/2 50/48/2 48/46/2 
f 42/40/2 41/39/2 51/49/2 52/50/2 
f 41/39/2 44/42/2 53/51/2 51/49/2 
f 44/42/2 46/44/2 54/52/2 53/51/2 
f 46/44/2 48/46/2 55/53/2 54/52/2 
f 48/46/2 50/48/2 56/54/2 55/53/2 
f 51/49/2 53/51/2 57/55/2 58/56/2 
f 53/51/2 54/52/2 59/57/2 57/55/2 
f 54/52/2 55/53/2 60/58/2 59/57/2 
f 55/53/2 56/54/2 61/59/2 60/58/2 
f 62/60/2 58/56/2 63/61/2 64/62/2 
f 58/56/2 57/55/2 65/63/2 63/61/2 
f 57/55/2 59/57/2 66/64/2 65/63/2 
f 59/57/2 60/58/2 67/65/2 66/64/2 
f 60/58/2 61/59/2 68/66/2 67/65/2 
f 64/62/2 63/61/2 69/67/2 70/68/2 
f 63/61/2 65/63/2 71/69/2 69/67/2 
f 65/63/2 66/64/2 72/70/2 71/69/2 
f 66/64/2 67/65/2 73/71/2 72/70/2 
f 67/65/2 68/66/2 74/72/2 73/71/2 
s off
f 45/43/2 43/41/2 75/41/2 76/43/2 
# 25 polygons

#
# object Plane003
#

v  0.6801 0.5542 51.1926
v  15.6801 0.5542 51.1926
v  15.6801 0.5542 41.1926
v  0.6801 0.5542 41.1926
v  30.6801 0.5542 51.1926
v  30.6801 0.5542 41.1926
v  45.6801 0.5542 51.1926
v  45.6801 0.5542 41.1926
v  60.6801 0.5542 51.1926
v  60.6801 0.5542 41.1926
v  75.6801 0.5542 51.1926
v  75.6801 0.5542 41.1926
v  15.6801 0.5542 31.1926
v  0.6801 0.5542 31.1926
v  30.6801 0.5542 31.1926
v  45.6801 0.5542 31.1926
v  60.6801 0.5542 31.1926
v  75.6801 0.5542 31.1926
v  15.6801 0.5542 21.1926
v  0.6801 0.5542 21.1926
v  30.6801 0.5542 21.1926
v  45.6801 0.5542 21.1926
v  60.6801 0.5542 21.1926
v  75.6801 0.5542 21.1926
v  15.6801 0.5542 11.1926
v  0.6801 0.5542 11.1926
v  29.5917 0.5542 11.9182
v  46.7685 0.5542 11.9182
v  60.6801 0.5542 11.1926
v  75.6801 0.5542 11.1926
v  15.6801 0.5542 1.1926
v  0.6801 0.5542 1.1926
v  29.5917 0.5542 1.6990
v  60.6801 0.5542 1.1926
v  46.7685 0.5542 1.6990
v  75.6801 0.5542 1.1926
v  -13.9934 0.5542 21.1926
v  -13.9934 0.5542 31.1926
# 38 vertices

vn 0.0000 1.0000 -0.0000
# 1 vertex normals

vt 0.0000 0.0000 0.0000
vt 0.2000 0.0000 0.0000
vt 0.2000 0.2000 0.0000
vt 0.0000 0.2000 0.0000
vt 0.4000 0.0000 0.0000
vt 0.4000 0.2000 0.0000
vt 0.6000 0.0000 0.0000
vt 0.6000 0.2000 0.0000
vt 0.8000 0.0000 0.0000
vt 0.8000 0.2000 0.0000
vt 1.0000 0.0000 0.0000
vt 1.0000 0.2000 0.0000
vt 0.2000 0.4000 0.0000
vt 0.0000 0.4000 0.0000
vt 0.4000 0.4000 0.0000
vt 0.6000 0.4000 0.0000
vt 0.8000 0.4000 0.0000
vt 1.0000 0.4000 0.0000
vt 0.2000 0.6000 0.0000
vt 0.0000 0.6000 0.0000
vt 0.4000 0.6000 0.0000
vt 0.6000 0.6000 0.0000
vt 0.8000 0.6000 0.0000
vt 1.0000 0.6000 0.0000
vt 0.2000 0.8000 0.0000
vt 0.0000 0.8000 0.0000
vt 0.4000 0.8000 0.0000
vt 0.6000 0.8000 0.0000
vt 0.8000 0.8000 0.0000
vt 1.0000 0.8000 0.0000
vt 0.2000 1.0000 0.0000
vt 0.0000 1.0000 0.0000
vt 0.4000 1.0000 0.0000
vt 0.8000 1.0000 0.0000
vt 0.6000 1.0000 0.0000
vt 1.0000 1.0000 0.0000
# 36 texture coords

g Plane003
usemtl wire_227153153
s 1
f 77/73/3 78/74/3 79/75/3 80/76/3 
f 78/74/3 81/77/3 82/78/3 79/75/3 
f 81/77/3 83/79/3 84/80/3 82/78/3 
f 83/79/3 85/81/3 86/82/3 84/80/3 
f 85/81/3 87/83/3 88/84/3 86/82/3 
f 80/76/3 79/75/3 89/85/3 90/86/3 
f 79/75/3 82/78/3 91/87/3 89/85/3 
f 82/78/3 84/80/3 92/88/3 91/87/3 
f 84/80/3 86/82/3 93/89/3 92/88/3 
f 86/82/3 88/84/3 94/90/3 93/89/3 
f 90/86/3 89/85/3 95/91/3 96/92/3 
f 89/85/3 91/87/3 97/93/3 95/91/3 
f 91/87/3 92/88/3 98/94/3 97/93/3 
f 92/88/3 93/89/3 99/95/3 98/94/3 
f 93/89/3 94/90/3 100/96/3 99/95/3 
f 96/92/3 95/91/3 101/97/3 102/98/3 
f 95/91/3 97/93/3 103/99/3 101/97/3 
f 97/93/3 98/94/3 104/100/3 103/99/3 
f 98/94/3 99/95/3 105/101/3 104/100/3 
f 99/95/3 100/96/3 106/102/3 105/101/3 
f 102/98/3 101/97/3 107/103/3 108/104/3 
f 101/97/3 103/99/3 109/105/3 107/103/3 
f 104/100/3 105/101/3 110/106/3 111/107/3 
f 105/101/3 106/102/3 112/108/3 110/106/3 
s off
f 90/86/3 96/92/3 113/92/3 114/86/3 
# 25 polygons

#
# object Plane004
#

v  -74.8859 0.5542 50.9865
v  -59.8859 0.5542 50.9865
v  -59.8859 0.5542 40.9865
v  -74.8859 0.5542 40.9865
v  -44.8859 0.5542 50.9865
v  -44.8859 0.5542 40.9865
v  -29.8859 0.5542 50.9865
v  -29.8859 0.5542 40.9865
v  -14.8859 0.5542 50.9865
v  -14.8859 0.5542 40.9865
v  0.1141 0.5542 50.9865
v  0.1141 0.5542 40.9865
v  -59.8859 0.5542 30.9865
v  -74.8859 0.5542 30.9865
v  -44.8859 0.5542 30.9865
v  -29.8859 0.5542 30.9865
v  -15.8292 0.5542 31.6154
v  -0.3811 0.5542 31.6154
v  -59.8859 0.5542 20.9865
v  -74.8859 0.5542 20.9865
v  -44.8859 0.5542 20.9865
v  -29.8859 0.5542 20.9865
v  -15.8292 0.5542 20.3576
v  -59.8859 0.5542 10.9865
v  -74.8859 0.5542 10.9865
v  -44.8859 0.5542 10.9865
v  -29.8859 0.5542 10.9865
v  -14.8859 0.5542 10.9865
v  -0.3811 0.5542 20.3576
v  0.1141 0.5542 10.9865
v  -59.8859 0.5542 0.9865
v  -74.8859 0.5542 0.9865
v  -44.8859 0.5542 0.9865
v  -29.8859 0.5542 0.9865
v  -14.8859 0.5542 0.9865
v  0.1141 0.5542 0.9865
v  -29.8859 0.5542 -9.1659
v  -44.8859 0.5542 -9.1659
# 38 vertices

vn 0.0000 1.0000 -0.0000
# 1 vertex normals

vt 0.0000 0.0000 0.0000
vt 0.2000 0.0000 0.0000
vt 0.2000 0.2000 0.0000
vt 0.0000 0.2000 0.0000
vt 0.4000 0.0000 0.0000
vt 0.4000 0.2000 0.0000
vt 0.6000 0.0000 0.0000
vt 0.6000 0.2000 0.0000
vt 0.8000 0.0000 0.0000
vt 0.8000 0.2000 0.0000
vt 1.0000 0.0000 0.0000
vt 1.0000 0.2000 0.0000
vt 0.2000 0.4000 0.0000
vt 0.0000 0.4000 0.0000
vt 0.4000 0.4000 0.0000
vt 0.6000 0.4000 0.0000
vt 0.8000 0.4000 0.0000
vt 1.0000 0.4000 0.0000
vt 0.2000 0.6000 0.0000
vt 0.0000 0.6000 0.0000
vt 0.4000 0.6000 0.0000
vt 0.6000 0.6000 0.0000
vt 0.8000 0.6000 0.0000
vt 0.2000 0.8000 0.0000
vt 0.0000 0.8000 0.0000
vt 0.4000 0.8000 0.0000
vt 0.6000 0.8000 0.0000
vt 0.8000 0.8000 0.0000
vt 1.0000 0.6000 0.0000
vt 1.0000 0.8000 0.0000
vt 0.2000 1.0000 0.0000
vt 0.0000 1.0000 0.0000
vt 0.4000 1.0000 0.0000
vt 0.6000 1.0000 0.0000
vt 0.8000 1.0000 0.0000
vt 1.0000 1.0000 0.0000
# 36 texture coords

g Plane004
usemtl wire_227153153
s 1
f 115/109/4 116/110/4 117/111/4 118/112/4 
f 116/110/4 119/113/4 120/114/4 117/111/4 
f 119/113/4 121/115/4 122/116/4 120/114/4 
f 121/115/4 123/117/4 124/118/4 122/116/4 
f 123/117/4 125/119/4 126/120/4 124/118/4 
f 118/112/4 117/111/4 127/121/4 128/122/4 
f 117/111/4 120/114/4 129/123/4 127/121/4 
f 120/114/4 122/116/4 130/124/4 129/123/4 
f 122/116/4 124/118/4 131/125/4 130/124/4 
f 124/118/4 126/120/4 132/126/4 131/125/4 
f 128/122/4 127/121/4 133/127/4 134/128/4 
f 127/121/4 129/123/4 135/129/4 133/127/4 
f 129/123/4 130/124/4 136/130/4 135/129/4 
f 130/124/4 131/125/4 137/131/4 136/130/4 
f 134/128/4 133/127/4 138/132/4 139/133/4 
f 133/127/4 135/129/4 140/134/4 138/132/4 
f 135/129/4 136/130/4 141/135/4 140/134/4 
f 136/130/4 137/131/4 142/136/4 141/135/4 
f 137/131/4 143/137/4 144/138/4 142/136/4 
f 139/133/4 138/132/4 145/139/4 146/140/4 
f 138/132/4 140/134/4 147/141/4 145/139/4 
f 140/134/4 141/135/4 148/142/4 147/141/4 
f 141/135/4 142/136/4 149/143/4 148/142/4 
f 142/136/4 144/138/4 150/144/4 149/143/4 
s off
f 147/141/4 148/142/4 151/142/4 152/141/4 
# 25 polygons

